<!DOCTYPE svg PUBLIC "-//W3C//DTD SVG 1.1//EN" "http://www.w3.org/Graphics/SVG/1.1/DTD/svg11.dtd">
<!-- Uploaded to: SVG Repo, www.svgrepo.com, Transformed by: SVG Repo Mixer Tools -->
<svg fill="#1690f3" height="64px" width="64px" version="1.1" xmlns="http://www.w3.org/2000/svg" viewBox="0 0 512 512" xmlns:xlink="http://www.w3.org/1999/xlink" enable-background="new 0 0 512 512" stroke="#1690f3" transform="matrix(1, 0, 0, 1, 0, 0)">
<g id="SVGRepo_bgCarrier" stroke-width="0"/>
<g id="SVGRepo_tracerCarrier" stroke-linecap="round" stroke-linejoin="round"/>
<g id="SVGRepo_iconCarrier"> <g> <g> <path d="M500.8,457.4l-32.3-238.6c-1.4-10.1-10-17.7-20.2-17.7h-51C364.9,274.7,261,369.4,256,369.4c-5,0-108.9-94.7-141.2-168.2 h-51c-10.2,0-18.9,7.5-20.2,17.7L11.2,457.4c0,14.2,10,23.2,20.2,23.2h449.2C497.5,480.6,501.8,467,500.8,457.4L500.8,457.4z"/> <path d="m241.5,88.8h28.9c11.3,0 20.4,9.1 20.4,20.4 0,11.3-9.1,20.4-20.4,20.4h-28.9c-11.3,0-20.4-9.1-20.4-20.4 2.84217e-14-11.2 9.2-20.4 20.4-20.4zm14.5,231.9c24.1-23.8 58.8-61.8 83.5-99.1 17.3-26.2 29.7-51.9 29.7-72.2 0-65.1-50.8-118-113.1-118-62.4,0-113.1,52.9-113.1,118 0,20.3 12.4,46 29.6,72.2 24.6,37.3 59.3,75.3 83.4,99.1z"/> </g> </g> </g>
</svg>