<svg xmlns="http://www.w3.org/2000/svg" version="1.1" xmlns:xlink="http://www.w3.org/1999/xlink" xmlns:svgjs="http://svgjs.dev/svgjs" width="64" height="64" viewBox="0 0 128 128"><g transform="matrix(0.8046875,0,0,0.8046875,12.760752631578946,33.803328391047664)"><svg viewBox="0 0 95 56" data-background-color="#ffffff" preserveAspectRatio="xMidYMid meet" height="75" width="128" xmlns="http://www.w3.org/2000/svg" xmlns:xlink="http://www.w3.org/1999/xlink"><g id="tight-bounds" transform="matrix(1,0,0,1,-0.24049999999999727,0.01938408970490002)"><svg viewBox="0 0 95.481 55.961231820590186" height="55.961231820590186" width="95.481"><g><svg viewBox="0 0 95.481 55.961231820590186" height="55.961231820590186" width="95.481"><g><svg viewBox="0 0 95.481 55.961231820590186" height="55.961231820590186" width="95.481"><g id="textblocktransform"><svg viewBox="0 0 95.481 55.961231820590186" height="55.961231820590186" width="95.481" id="textblock"><g><svg viewBox="0 0 95.481 55.961231820590186" height="55.961231820590186" width="95.481"><g><svg viewBox="0 0 95.481 55.961231820590186" height="55.961231820590186" width="95.481"><g><svg xmlns="http://www.w3.org/2000/svg" xmlns:xlink="http://www.w3.org/1999/xlink" version="1.1" x="0" y="0" viewBox="1.1308009188932195 20.711091896608583 97.54419908110678 57.17046886324627" enable-background="new 0 0 100 100" xml:space="preserve" height="55.961231820590186" width="95.481" class="icon-icon-0" data-fill-palette-color="accent" id="icon-0"><path fill-rule="evenodd" clip-rule="evenodd" d="M54.397 70.521c-6.252 0-12.156 0-18.058 0-1.074 0.004-2.114 0.083-1.856-1.579 1.905-12.311-6.675-17.674-15.346-22.842-3.25-1.937-6.793-3.383-10.561-5.229 2.886-1.833 4.543-4.218 5.852-6.986-0.844-1.677-2.85 1.645-3.383-0.604-0.338-1.438 0.929-2.443 1.894-3.296 3.642-3.224 7.243-6.458 11.643-8.757 2.051-1.07 2.779-0.354 3.947 1.008 1.497 1.742 0.725 2.826-0.629 4.081-1.306 1.21-3.005 1.106-4.487 1.688-2.36 0.922-5.177 2.107-4.809 5.024 0.359 2.855 3.2 3.792 5.828 3.668 10.564-0.51 18.373 6.274 27.753 9.606-2.25 3.325-5.042 4.29-8.188 4.691-3.311 0.426-4.789 1.962-3.169 5.399 0.558 1.186 0.983 2.508 1.119 3.806 0.562 5.385 2.88 8.442 8.856 7.435C52.307 67.38 53.654 68.171 54.397 70.521z" fill="#1690f3" data-fill-palette-color="accent"></path><path fill-rule="evenodd" clip-rule="evenodd" d="M96.395 24.83C85.79 31.133 75.841 36.833 65.525 41.885c-1.5 0.733-3.101 0.43-4.698-0.304-7.252-3.318-14.547-6.542-21.84-9.766-1.861-0.82-3.672-2.844-1.133-3.484 6.455-1.626 12.912-5.692 19.952-1.601 3.343 1.944 3.636 3.256 0.26 5.103-3.198 1.753-2.623 2.91 0.022 4.471 3.068 1.807 6.324 2.053 9.313 0.448 3.863-2.074 7.98-3.412 11.103-7.33 1.71-2.143 6.744-2.168 10.203-3.426C90.868 25.209 92.878 23.59 96.395 24.83z" fill="#1690f3" data-fill-palette-color="accent"></path><path fill-rule="evenodd" clip-rule="evenodd" d="M62.11 56.1c3.513-1.991 6.184-5.28 10.983-5.262 2.132 0.004 3.997-2.132 6.39-2.667 7.698-1.717 15.537 2.537 17.851 9.993 2.35 7.558-1.438 15.664-8.695 18.621-7.251 2.956-15.899-0.265-19.188-7.25-0.585-1.24-2.15-2.791 0.463-3.929 2.125-0.93 3.166-0.824 4.301 1.611 2.046 4.396 5.978 6.09 10.633 5.212 4.406-0.828 6.936-3.621 7.821-7.951 0.835-4.088-1.105-8.063-5.057-10.405-0.502-0.297-1.301-0.321-1.583-0.73-4.593-6.635-9.512-3.169-14.449-0.56-2.938 1.55-5.938 2.985-8.912 4.474C62.482 56.869 62.295 56.482 62.11 56.1z" fill="#1690f3" data-fill-palette-color="accent"></path><path fill-rule="evenodd" clip-rule="evenodd" d="M55.626 63.649c-2.102-1.518-1.55-3.13-0.982-4.886 0.676-2.097 1.358-4.247 1.568-6.423 0.318-3.365-0.969-6.032-4.279-7.488-6.753-2.964-13.486-5.971-20.216-8.985-2.546-1.139-5.244-0.571-7.874-0.77-1.596-0.119-3.117-0.611-3.479-2.183-0.336-1.457 1.097-2.884 2.17-2.971 3.034-0.242 5.398-2.31 8.445-2.552 1.776-0.141 3.077 0.889 3.088 1.731 0.043 3.589 3.003 3.582 5.083 4.546 5.488 2.538 11.067 4.883 16.573 7.384 6.347 2.884 8.227 12.982 3.285 18.046C57.672 60.47 56.386 61.824 55.626 63.649z" fill="#1690f3" data-fill-palette-color="accent"></path><path fill-rule="evenodd" clip-rule="evenodd" d="M26.429 60.181c5.403 1.524 6.025 2.595 4.059 7.727-2.124 5.548-6.123 8.996-12.077 9.772-6.296 0.82-11.455-1.435-14.814-6.809-3.215-5.14-3.313-10.601-0.139-15.913 3.027-5.06 4.221-5.338 9.901-2.173-2.542 1.844-5.132 3.431-6.327 6.391-1.22 3.028-0.779 5.793 0.703 8.493 2.217 4.044 6.773 5.848 11.403 4.615C23.838 71.033 26.192 67.127 26.429 60.181z" fill="#1690f3" data-fill-palette-color="accent"></path><path fill-rule="evenodd" clip-rule="evenodd" d="M16.015 64.937c-0.269-6.954 1.921-14.572-7.994-16.658 6.717-4.222 18.056 1.366 23.949 12.046-4.818-3.174-8.745-2.74-12.209 0.842 3.79 0.903 4.475 3.4 1.659 6.339-2.606 2.715-5.671 3.036-8.856 1.168-2.933-1.725-4.088-5.896-2.51-8.964 0.553-1.073 1.227-2.96 2.691-2.179 0.911 0.484 2.635 1.647 1.874 3.523C14.036 62.489 13.507 63.892 16.015 64.937z" fill="#1690f3" data-fill-palette-color="accent"></path><path fill-rule="evenodd" clip-rule="evenodd" d="M83.697 56.306c0.098 1.479-0.419 2.461-1.934 3.004-5.096 1.832-10.166 3.751-15.233 5.663-2.273 0.856-3.317-0.542-4.037-2.259-0.723-1.721-0.925-3.448 1.218-4.475 4.887-2.342 9.715-4.817 14.678-6.989C81.066 50.079 83.69 52.725 83.697 56.306z" fill="#1690f3" data-fill-palette-color="accent"></path><path fill-rule="evenodd" clip-rule="evenodd" d="M82.7 69.726c-1.442 0.111-2.805-0.423-3.986-1.359-1.302-1.026-2.512-2.306-2.469-4.005 0.047-1.934 2.125-1.594 3.285-2.283 2.346-1.389 5.898-0.72 6.907-4.511 0.281-1.063 1.445 0.249 1.894 0.802 1.854 2.281 2.049 4.952 0.878 7.481C88.021 68.428 85.801 69.855 82.7 69.726z" fill="#1690f3" data-fill-palette-color="accent"></path><path fill-rule="evenodd" clip-rule="evenodd" d="M51.589 56.273c-0.364 3.028-1.995 4.694-5.005 4.503-2.817-0.181-4.245-2.006-4.185-4.756 0.067-3.104 2.037-4.594 4.933-4.424C50.061 51.759 51.506 53.53 51.589 56.273z" fill="#1690f3" data-fill-palette-color="accent"></path><path fill-rule="evenodd" clip-rule="evenodd" d="M64.86 35.933c-1.496 0-1.792 0.021-2.085-0.003-1.583-0.138-3.72-0.015-4.037-1.793-0.271-1.532 1.883-2.295 3.072-2.653 3.914-1.185 7.954-1.97 11.966-2.826 0.452-0.094 1.236 0.188 1.482 0.549 0.423 0.636 0.304 1.605-0.376 1.966C71.279 33.078 67.926 35.597 64.86 35.933z" fill="#1690f3" data-fill-palette-color="accent"></path><path fill-rule="evenodd" clip-rule="evenodd" d="M63.798 52.359c-0.181-1.62-0.368-3.213-0.531-4.807-0.162-1.565-0.78-3.47 1.832-3.466 1.049 0 3.792-2.328 2.628 1.724-0.268 0.933 1.413 0.036 2.049-0.163 2.479-0.784 4.894-1.76 6.925 1.056-2.648-0.813-5.038-0.322-7.535 0.661C66.563 48.387 68.283 53.165 63.798 52.359z" fill="#1690f3" data-fill-palette-color="accent"></path><path fill-rule="evenodd" clip-rule="evenodd" d="M59.829 60.87c2.813 3.178 2.248 6.062 0.059 8.588-0.759 0.874-2.451 0.474-3.025-0.748C55.182 65.149 57.234 62.895 59.829 60.87z" fill="#1690f3" data-fill-palette-color="accent"></path><path fill-rule="evenodd" clip-rule="evenodd" d="M98.675 38.636c-3.213-3.13-5.399-7.174-11.948-4.93 3.372-3.477 6.596-4.016 8.952-2.057C97.413 33.096 97.728 36.247 98.675 38.636z" fill="#1690f3" data-fill-palette-color="accent"></path><path fill-rule="evenodd" clip-rule="evenodd" d="M89.665 23.333c-2.834 2.617-5.534 2.823-7.974 3.535-0.81 0.235-2.291 0.727-2.378-0.893-0.062-1.135 0.962-1.746 2.082-1.865C83.813 23.857 86.234 23.652 89.665 23.333z" fill="#1690f3" data-fill-palette-color="accent"></path><path fill-rule="evenodd" clip-rule="evenodd" d="M49.558 66.187c-1.382-0.404-3.517 0.654-3.357-1.305 0.218-2.667 3.193-1.904 4.886-2.623 1.938-0.824 2.017 1.63 1.953 2.414C52.829 67.297 50.461 65.291 49.558 66.187z" fill="#1690f3" data-fill-palette-color="accent"></path><path fill-rule="evenodd" clip-rule="evenodd" d="M10.305 34.458c0 0-2.204 3.559-2.542 5.932 0 0 2.542-2.881 4.576-5.254C12.339 35.136 10.305 35.813 10.305 34.458z" fill="#1690f3" data-fill-palette-color="accent"></path></svg></g></svg></g></svg></g></svg></g></svg></g></svg></g><defs></defs></svg><rect width="95.481" height="55.961231820590186" fill="none" stroke="none" visibility="hidden"></rect></g></svg></g></svg>