<svg xmlns="http://www.w3.org/2000/svg" version="1.1" xmlns:xlink="http://www.w3.org/1999/xlink" xmlns:svgjs="http://svgjs.dev/svgjs" width="145" height="51" viewBox="0 0 2000 545"><g transform="matrix(1,0,0,1,-1.2120987070450155,-0.3360615720282567)"><svg viewBox="0 0 396 108" data-background-color="#ffffff" preserveAspectRatio="xMidYMid meet" height="545" width="2000" xmlns="http://www.w3.org/2000/svg" xmlns:xlink="http://www.w3.org/1999/xlink"><g id="tight-bounds" transform="matrix(1,0,0,1,0.23999832515039543,0.06659947245466924)"><svg viewBox="0 0 395.52 107.86680483987732" height="107.86680483987732" width="395.52"><g><svg viewBox="0 0 787.9508387291737 214.8911290064154" height="107.86680483987732" width="395.52"><g transform="matrix(1,0,0,1,392.4308387291737,6.847161891784324)"><svg viewBox="0 0 395.52 201.19680522284676" height="201.19680522284676" width="395.52"><g id="textblocktransform"><svg viewBox="0 0 395.52 201.19680522284676" height="201.19680522284676" width="395.52" id="textblock"><g><svg viewBox="0 0 395.52 109.21821247892073" height="109.21821247892073" width="395.52"><g transform="matrix(1,0,0,1,0,0)"><svg width="395.52" viewBox="3 -32.349998474121094 118.58999633789062 32.75" height="109.21821247892073" data-palette-color="#000000"><path d="M33.25-32.05L36.4 0 32.8 0 32.05-9.75 30.35-25.7 30-25.7 21.1-3.7 17.8-3.7 9.35-25.7 8.95-25.7 7.25-10.05 6.4 0 3 0 6.35-32.05 10.9-32.05 12.55-27.15 19.5-8.9 19.8-8.9 27.1-27.45 28.75-32.05 33.25-32.05ZM55.7-32.35Q62.3-32.35 65.82-28.3 69.35-24.25 69.35-16.65L69.35-16.65Q69.35-8.45 65.6-4.03 61.85 0.4 54.9 0.4L54.9 0.4Q48.4 0.4 44.87-3.8 41.35-8 41.35-15.75L41.35-15.75Q41.35-23.75 45.07-28.05 48.8-32.35 55.7-32.35L55.7-32.35ZM55.45-29.1Q45.45-29.1 45.45-16.2L45.45-16.2Q45.45-9.35 47.87-6.05 50.3-2.75 55.2-2.75L55.2-2.75Q65.2-2.75 65.2-15.9L65.2-15.9Q65.2-22.6 62.77-25.85 60.35-29.1 55.45-29.1L55.45-29.1ZM92.35-32.05L92.65-31.65 92.35-28.55 86.75-28.85 83.5-28.85 83.35-10 83.5 0 79.45 0 79.75-9.65 79.5-28.85 76.25-28.85 70.55-28.55 70.3-28.95 70.6-32.05 92.35-32.05ZM107.94-32.35Q114.54-32.35 118.07-28.3 121.59-24.25 121.59-16.65L121.59-16.65Q121.59-8.45 117.84-4.03 114.09 0.4 107.14 0.4L107.14 0.4Q100.64 0.4 97.12-3.8 93.59-8 93.59-15.75L93.59-15.75Q93.59-23.75 97.32-28.05 101.04-32.35 107.94-32.35L107.94-32.35ZM107.69-29.1Q97.69-29.1 97.69-16.2L97.69-16.2Q97.69-9.35 100.12-6.05 102.54-2.75 107.44-2.75L107.44-2.75Q117.44-2.75 117.44-15.9L117.44-15.9Q117.44-22.6 115.02-25.85 112.59-29.1 107.69-29.1L107.69-29.1Z" opacity="1" transform="matrix(1,0,0,1,0,0)" fill="#000000" class="undefined-text-0" data-fill-palette-color="primary" id="text-0"></path></svg></g></svg></g><g transform="matrix(1,0,0,1,75.54432,135.00201120809442)"><svg viewBox="0 0 244.43135999999998 66.19479401475235" height="66.19479401475235" width="244.43135999999998"><g transform="matrix(1,0,0,1,0,0)"><svg width="244.43135999999998" viewBox="2.75 -37.75 142.33999633789062 38.54999923706055" height="66.19479401475235" data-palette-color="#000000"><path d="M14 0L2.75 0 2.75-1.65Q4.65-1.75 5.35-2.53 6.05-3.3 6.13-4.67 6.2-6.05 6.2-7.8L6.2-7.8 6.2-29.4Q6.2-30.4 6.25-31.33 6.3-32.25 6.35-33L6.35-33Q5.45-32.95 4.55-32.9 3.65-32.85 2.75-32.8L2.75-32.8 2.75-35Q5.55-35.05 8.43-35.1 11.3-35.15 14.2-35.05L14.2-35.05Q19.05-35 22.03-33.93 25-32.85 26.4-30.88 27.8-28.9 27.8-26.1L27.8-26.1Q27.85-24.15 27.08-22.13 26.3-20.1 24.28-18.5 22.25-16.9 18.45-16.1L18.45-16.1Q19.45-15.4 20.2-14.3 20.95-13.2 21.9-11.75L21.9-11.75 25.3-6.4Q26.15-5.05 26.95-3.98 27.75-2.9 28.8-2.27 29.85-1.65 31.4-1.65L31.4-1.65 31.4 0 25.1 0Q23.65-1.3 22.68-2.6 21.7-3.9 20.65-5.55L20.65-5.55 17.3-10.9Q16.65-11.95 15.83-13.33 15-14.7 13.95-15.65L13.95-15.65Q13.15-15.6 12.28-15.6 11.4-15.6 10.55-15.65L10.55-15.65 10.55-5.95Q10.55-4.6 10.53-3.63 10.5-2.65 10.4-2L10.4-2Q11-2.05 11.6-2.08 12.2-2.1 12.8-2.15 13.4-2.2 14-2.2L14-2.2 14 0ZM13.65-17.5L13.65-17.5Q16.4-17.6 18.48-18.4 20.55-19.2 21.75-20.95 22.95-22.7 22.95-25.55L22.95-25.55Q22.95-27.45 22.43-28.88 21.9-30.3 20.8-31.25 19.7-32.2 18-32.68 16.3-33.15 14-33.15L14-33.15Q12.15-33.15 11.43-32.4 10.7-31.65 10.63-30.33 10.55-29 10.55-27.2L10.55-27.2 10.55-17.6Q11.35-17.55 12.08-17.5 12.8-17.45 13.65-17.5ZM45.35 0.8L45.35 0.8Q41.9 0.8 39.12-0.83 36.35-2.45 34.75-5.43 33.15-8.4 33.15-12.45L33.15-12.45Q33.15-15.95 34.72-19 36.3-22.05 39.15-23.93 42-25.8 45.75-25.8L45.75-25.8Q47.85-25.8 49.67-25.13 51.5-24.45 52.9-23.08 54.3-21.7 55.1-19.63 55.9-17.55 55.9-14.75L55.9-14.75 38.3-14.45Q38.3-10.65 39.12-7.78 39.95-4.9 41.8-3.33 43.65-1.75 46.55-1.75L46.55-1.75Q48.1-1.75 49.72-2.3 51.35-2.85 52.75-3.8 54.15-4.75 55-5.9L55-5.9 56.2-4.9Q54.85-2.8 52.95-1.55 51.05-0.3 49.05 0.25 47.05 0.8 45.35 0.8ZM38.45-16.55L38.45-16.55 51.2-16.55Q51.2-18.35 50.67-20.03 50.15-21.7 48.95-22.78 47.75-23.85 45.8-23.85L45.8-23.85Q42.9-23.85 40.97-22.13 39.05-20.4 38.45-16.55ZM70.55 0L60.35 0 60.35-1.5Q61.9-1.5 62.5-2.27 63.1-3.05 63.2-4.42 63.3-5.8 63.3-7.6L63.3-7.6 63.35-19Q63.35-19.8 63.37-20.6 63.4-21.4 63.55-22.25L63.55-22.25Q62.65-22.2 61.77-22.15 60.9-22.1 60-22.05L60-22.05 60-24.15Q62.2-24.15 63.32-24.35 64.45-24.55 65-24.85 65.55-25.15 65.9-25.5L65.9-25.5 67.34-25.5Q67.4-25.15 67.42-24.7 67.45-24.25 67.5-23.7 67.55-23.15 67.55-22.45L67.55-22.45Q68.65-23.4 69.97-24.15 71.3-24.9 72.77-25.35 74.25-25.8 75.7-25.8L75.7-25.8Q80.05-25.8 82.05-23.08 84.05-20.35 84.05-14.6L84.05-14.6 84.05-5.3Q84.05-4.3 84.02-3.53 84-2.75 83.84-1.9L83.84-1.9Q84.65-1.95 85.42-1.98 86.2-2 87-2.05L87-2.05 87 0 76.8 0 76.8-1.5Q78.34-1.5 78.95-2.27 79.55-3.05 79.65-4.42 79.75-5.8 79.75-7.6L79.75-7.6 79.75-14.6Q79.7-18.9 78.32-21.1 76.95-23.3 74-23.25L74-23.25Q72.2-23.2 70.47-22.3 68.75-21.4 67.59-20L67.59-20Q67.65-19.6 67.65-19.1 67.65-18.6 67.65-18.05L67.65-18.05 67.59-5.3Q67.59-4.3 67.57-3.53 67.55-2.75 67.4-1.9L67.4-1.9Q68.2-1.95 68.97-1.98 69.75-2 70.55-2.05L70.55-2.05 70.55 0ZM99.64 0.8L99.64 0.8Q98.49 0.8 97.29 0.48 96.09 0.15 95.07-0.8 94.04-1.75 93.44-3.58 92.84-5.4 92.84-8.4L92.84-8.4 92.94-22.9 89.09-22.85 89.09-25Q90.39-25.05 91.74-25.98 93.09-26.9 94.17-28.5 95.24-30.1 95.64-32L95.64-32 97.34-32 97.34-25 105.74-25 105.74-23.05 97.34-22.95 97.24-9.05Q97.24-6.8 97.62-5.23 97.99-3.65 98.84-2.85 99.69-2.05 101.04-2.05L101.04-2.05Q102.44-2.05 103.67-2.85 104.89-3.65 105.84-5.05L105.84-5.05 107.19-3.95Q106.09-2.3 105.02-1.35 103.94-0.4 102.94 0.08 101.94 0.55 101.09 0.68 100.24 0.8 99.64 0.8ZM131.94 0L124.79 0Q124.64-0.85 124.59-1.5 124.54-2.15 124.44-2.85L124.44-2.85Q122.74-1.15 120.77-0.18 118.79 0.8 116.59 0.8L116.59 0.8Q112.79 0.8 110.94-0.93 109.09-2.65 109.09-5.15L109.09-5.15Q109.09-7.45 110.52-9.13 111.94-10.8 114.22-11.88 116.49-12.95 119.17-13.48 121.84-14 124.34-13.95L124.34-13.95 124.34-17.05Q124.34-18.8 124.04-20.35 123.74-21.9 122.74-22.9 121.74-23.9 119.54-23.95L119.54-23.95Q118.09-24 116.57-23.4 115.04-22.8 114.34-21.35L114.34-21.35Q114.74-20.95 114.87-20.43 114.99-19.9 114.99-19.45L114.99-19.45Q114.99-18.85 114.49-18.07 113.99-17.3 112.74-17.35L112.74-17.35Q111.69-17.35 111.14-18.07 110.59-18.8 110.59-19.8L110.59-19.8Q110.59-21.5 111.87-22.85 113.14-24.2 115.39-25 117.64-25.8 120.49-25.8L120.49-25.8Q124.69-25.8 126.69-23.58 128.69-21.35 128.64-16.55L128.64-16.55Q128.64-14.7 128.64-12.83 128.64-10.95 128.62-9.08 128.59-7.2 128.59-5.3L128.59-5.3Q128.59-4.5 128.54-3.7 128.49-2.9 128.39-1.9L128.39-1.9Q129.29-1.95 130.17-2 131.04-2.05 131.94-2.1L131.94-2.1 131.94 0ZM124.34-12.25L124.34-12.25Q122.64-12.2 120.77-11.83 118.89-11.45 117.32-10.7 115.74-9.95 114.77-8.72 113.79-7.5 113.84-5.75L113.84-5.75Q113.94-3.9 115.07-2.98 116.19-2.05 117.74-2.05L117.74-2.05Q119.79-2.05 121.32-2.83 122.84-3.6 124.34-5L124.34-5Q124.29-5.55 124.29-6.2 124.29-6.85 124.29-7.55L124.29-7.55Q124.29-7.8 124.32-9.15 124.34-10.5 124.34-12.25ZM134.89 0L134.89-1.5Q136.44-1.5 137.04-2.27 137.64-3.05 137.74-4.42 137.84-5.8 137.84-7.6L137.84-7.6 137.84-31.25Q137.84-32.05 137.86-32.77 137.89-33.5 137.99-34.5L137.99-34.5Q137.09-34.45 136.21-34.4 135.34-34.35 134.44-34.3L134.44-34.3 134.44-36.4Q136.64-36.4 137.86-36.6 139.09-36.8 139.71-37.1 140.34-37.4 140.69-37.75L140.69-37.75 142.14-37.75 142.19-5.3Q142.19-4.3 142.14-3.53 142.09-2.75 141.94-1.9L141.94-1.9Q142.74-1.95 143.51-1.98 144.29-2 145.09-2.05L145.09-2.05 145.09 0 134.89 0Z" opacity="1" transform="matrix(1,0,0,1,0,0)" fill="#000000" class="undefined-text-1" data-fill-palette-color="secondary" id="text-1"></path></svg></g></svg></g></svg></g></svg></g><g><svg viewBox="0 0 366.64704 214.8911290064154" height="214.8911290064154" width="366.64704"><g><svg xmlns="http://www.w3.org/2000/svg" xmlns:xlink="http://www.w3.org/1999/xlink" version="1.1" x="0" y="0" viewBox="1.1308023929595947 20.71109390258789 97.54419708251953 57.170467376708984" enable-background="new 0 0 100 100" xml:space="preserve" height="214.8911290064154" width="366.64704" class="icon-icon-0" data-fill-palette-color="accent" id="icon-0"><path fill-rule="evenodd" clip-rule="evenodd" d="M54.397 70.521c-6.252 0-12.156 0-18.058 0-1.074 0.004-2.114 0.083-1.856-1.579 1.905-12.311-6.675-17.674-15.346-22.842-3.25-1.937-6.793-3.383-10.561-5.229 2.886-1.833 4.543-4.218 5.852-6.986-0.844-1.677-2.85 1.645-3.383-0.604-0.338-1.438 0.929-2.443 1.894-3.296 3.642-3.224 7.243-6.458 11.643-8.757 2.051-1.07 2.779-0.354 3.947 1.008 1.497 1.742 0.725 2.826-0.629 4.081-1.306 1.21-3.005 1.106-4.487 1.688-2.36 0.922-5.177 2.107-4.809 5.024 0.359 2.855 3.2 3.792 5.828 3.668 10.564-0.51 18.373 6.274 27.753 9.606-2.25 3.325-5.042 4.29-8.188 4.691-3.311 0.426-4.789 1.962-3.169 5.399 0.558 1.186 0.983 2.508 1.119 3.806 0.562 5.385 2.88 8.442 8.856 7.435C52.307 67.38 53.654 68.171 54.397 70.521z" fill="#1690f3" data-fill-palette-color="accent"></path><path fill-rule="evenodd" clip-rule="evenodd" d="M96.395 24.83C85.79 31.133 75.841 36.833 65.525 41.885c-1.5 0.733-3.101 0.43-4.698-0.304-7.252-3.318-14.547-6.542-21.84-9.766-1.861-0.82-3.672-2.844-1.133-3.484 6.455-1.626 12.912-5.692 19.952-1.601 3.343 1.944 3.636 3.256 0.26 5.103-3.198 1.753-2.623 2.91 0.022 4.471 3.068 1.807 6.324 2.053 9.313 0.448 3.863-2.074 7.98-3.412 11.103-7.33 1.71-2.143 6.744-2.168 10.203-3.426C90.868 25.209 92.878 23.59 96.395 24.83z" fill="#1690f3" data-fill-palette-color="accent"></path><path fill-rule="evenodd" clip-rule="evenodd" d="M62.11 56.1c3.513-1.991 6.184-5.28 10.983-5.262 2.132 0.004 3.997-2.132 6.39-2.667 7.698-1.717 15.537 2.537 17.851 9.993 2.35 7.558-1.438 15.664-8.695 18.621-7.251 2.956-15.899-0.265-19.188-7.25-0.585-1.24-2.15-2.791 0.463-3.929 2.125-0.93 3.166-0.824 4.301 1.611 2.046 4.396 5.978 6.09 10.633 5.212 4.406-0.828 6.936-3.621 7.821-7.951 0.835-4.088-1.105-8.063-5.057-10.405-0.502-0.297-1.301-0.321-1.583-0.73-4.593-6.635-9.512-3.169-14.449-0.56-2.938 1.55-5.938 2.985-8.912 4.474C62.482 56.869 62.295 56.482 62.11 56.1z" fill="#1690f3" data-fill-palette-color="accent"></path><path fill-rule="evenodd" clip-rule="evenodd" d="M55.626 63.649c-2.102-1.518-1.55-3.13-0.982-4.886 0.676-2.097 1.358-4.247 1.568-6.423 0.318-3.365-0.969-6.032-4.279-7.488-6.753-2.964-13.486-5.971-20.216-8.985-2.546-1.139-5.244-0.571-7.874-0.77-1.596-0.119-3.117-0.611-3.479-2.183-0.336-1.457 1.097-2.884 2.17-2.971 3.034-0.242 5.398-2.31 8.445-2.552 1.776-0.141 3.077 0.889 3.088 1.731 0.043 3.589 3.003 3.582 5.083 4.546 5.488 2.538 11.067 4.883 16.573 7.384 6.347 2.884 8.227 12.982 3.285 18.046C57.672 60.47 56.386 61.824 55.626 63.649z" fill="#1690f3" data-fill-palette-color="accent"></path><path fill-rule="evenodd" clip-rule="evenodd" d="M26.429 60.181c5.403 1.524 6.025 2.595 4.059 7.727-2.124 5.548-6.123 8.996-12.077 9.772-6.296 0.82-11.455-1.435-14.814-6.809-3.215-5.14-3.313-10.601-0.139-15.913 3.027-5.06 4.221-5.338 9.901-2.173-2.542 1.844-5.132 3.431-6.327 6.391-1.22 3.028-0.779 5.793 0.703 8.493 2.217 4.044 6.773 5.848 11.403 4.615C23.838 71.033 26.192 67.127 26.429 60.181z" fill="#1690f3" data-fill-palette-color="accent"></path><path fill-rule="evenodd" clip-rule="evenodd" d="M16.015 64.937c-0.269-6.954 1.921-14.572-7.994-16.658 6.717-4.222 18.056 1.366 23.949 12.046-4.818-3.174-8.745-2.74-12.209 0.842 3.79 0.903 4.475 3.4 1.659 6.339-2.606 2.715-5.671 3.036-8.856 1.168-2.933-1.725-4.088-5.896-2.51-8.964 0.553-1.073 1.227-2.96 2.691-2.179 0.911 0.484 2.635 1.647 1.874 3.523C14.036 62.489 13.507 63.892 16.015 64.937z" fill="#1690f3" data-fill-palette-color="accent"></path><path fill-rule="evenodd" clip-rule="evenodd" d="M83.697 56.306c0.098 1.479-0.419 2.461-1.934 3.004-5.096 1.832-10.166 3.751-15.233 5.663-2.273 0.856-3.317-0.542-4.037-2.259-0.723-1.721-0.925-3.448 1.218-4.475 4.887-2.342 9.715-4.817 14.678-6.989C81.066 50.079 83.69 52.725 83.697 56.306z" fill="#1690f3" data-fill-palette-color="accent"></path><path fill-rule="evenodd" clip-rule="evenodd" d="M82.7 69.726c-1.442 0.111-2.805-0.423-3.986-1.359-1.302-1.026-2.512-2.306-2.469-4.005 0.047-1.934 2.125-1.594 3.285-2.283 2.346-1.389 5.898-0.72 6.907-4.511 0.281-1.063 1.445 0.249 1.894 0.802 1.854 2.281 2.049 4.952 0.878 7.481C88.021 68.428 85.801 69.855 82.7 69.726z" fill="#1690f3" data-fill-palette-color="accent"></path><path fill-rule="evenodd" clip-rule="evenodd" d="M51.589 56.273c-0.364 3.028-1.995 4.694-5.005 4.503-2.817-0.181-4.245-2.006-4.185-4.756 0.067-3.104 2.037-4.594 4.933-4.424C50.061 51.759 51.506 53.53 51.589 56.273z" fill="#1690f3" data-fill-palette-color="accent"></path><path fill-rule="evenodd" clip-rule="evenodd" d="M64.86 35.933c-1.496 0-1.792 0.021-2.085-0.003-1.583-0.138-3.72-0.015-4.037-1.793-0.271-1.532 1.883-2.295 3.072-2.653 3.914-1.185 7.954-1.97 11.966-2.826 0.452-0.094 1.236 0.188 1.482 0.549 0.423 0.636 0.304 1.605-0.376 1.966C71.279 33.078 67.926 35.597 64.86 35.933z" fill="#1690f3" data-fill-palette-color="accent"></path><path fill-rule="evenodd" clip-rule="evenodd" d="M63.798 52.359c-0.181-1.62-0.368-3.213-0.531-4.807-0.162-1.565-0.78-3.47 1.832-3.466 1.049 0 3.792-2.328 2.628 1.724-0.268 0.933 1.413 0.036 2.049-0.163 2.479-0.784 4.894-1.76 6.925 1.056-2.648-0.813-5.038-0.322-7.535 0.661C66.563 48.387 68.283 53.165 63.798 52.359z" fill="#1690f3" data-fill-palette-color="accent"></path><path fill-rule="evenodd" clip-rule="evenodd" d="M59.829 60.87c2.813 3.178 2.248 6.062 0.059 8.588-0.759 0.874-2.451 0.474-3.025-0.748C55.182 65.149 57.234 62.895 59.829 60.87z" fill="#1690f3" data-fill-palette-color="accent"></path><path fill-rule="evenodd" clip-rule="evenodd" d="M98.675 38.636c-3.213-3.13-5.399-7.174-11.948-4.93 3.372-3.477 6.596-4.016 8.952-2.057C97.413 33.096 97.728 36.247 98.675 38.636z" fill="#1690f3" data-fill-palette-color="accent"></path><path fill-rule="evenodd" clip-rule="evenodd" d="M89.665 23.333c-2.834 2.617-5.534 2.823-7.974 3.535-0.81 0.235-2.291 0.727-2.378-0.893-0.062-1.135 0.962-1.746 2.082-1.865C83.813 23.857 86.234 23.652 89.665 23.333z" fill="#1690f3" data-fill-palette-color="accent"></path><path fill-rule="evenodd" clip-rule="evenodd" d="M49.558 66.187c-1.382-0.404-3.517 0.654-3.357-1.305 0.218-2.667 3.193-1.904 4.886-2.623 1.938-0.824 2.017 1.63 1.953 2.414C52.829 67.297 50.461 65.291 49.558 66.187z" fill="#1690f3" data-fill-palette-color="accent"></path><path fill-rule="evenodd" clip-rule="evenodd" d="M10.305 34.458c0 0-2.204 3.559-2.542 5.932 0 0 2.542-2.881 4.576-5.254C12.339 35.136 10.305 35.813 10.305 34.458z" fill="#1690f3" data-fill-palette-color="accent"></path></svg></g></svg></g></svg></g><defs></defs></svg><rect width="395.52" height="107.86680483987732" fill="none" stroke="none" visibility="hidden"></rect></g></svg></g></svg>